<?xml version="1.0" encoding="utf-8"?>
<!-- Generator: Adobe Illustrator 25.0.1, SVG Export Plug-In . SVG Version: 6.00 Build 0)  -->
<svg version="1.1" id="Layer_1" xmlns="http://www.w3.org/2000/svg" xmlns:xlink="http://www.w3.org/1999/xlink" x="0px" y="0px"
	 viewBox="0 0 1903 1444" style="enable-background:new 0 0 1903 1444;" xml:space="preserve">
<style type="text/css">
	.st0{fill:url(#SVGID_1_);}
	.st1{fill:url(#SVGID_2_);}
	.st2{fill:url(#SVGID_3_);}
	.st3{fill:url(#SVGID_4_);}
	.st4{fill:url(#SVGID_5_);}
	.st5{fill:url(#SVGID_6_);}
	.st6{fill:url(#SVGID_7_);}
	.st7{fill:url(#SVGID_8_);}
	.st8{fill:url(#SVGID_9_);}
	.st9{fill:url(#SVGID_10_);}
	.st10{fill:url(#SVGID_11_);}
	.st11{fill:url(#SVGID_12_);}
	.st12{fill:url(#SVGID_13_);}
</style>
<linearGradient id="SVGID_1_" gradientUnits="userSpaceOnUse" x1="942.4652" y1="1455.6069" x2="960.5348" y2="-11.607">
	<stop  offset="0" style="stop-color:#E0C3B1"/>
	<stop  offset="0.238" style="stop-color:#D09DAF"/>
	<stop  offset="0.3289" style="stop-color:#C194AD"/>
	<stop  offset="0.3599" style="stop-color:#B98FAC"/>
	<stop  offset="0.4822" style="stop-color:#9D7FA8"/>
	<stop  offset="0.5535" style="stop-color:#9379A6"/>
	<stop  offset="0.6711" style="stop-color:#6373A6"/>
	<stop  offset="0.8636" style="stop-color:#4C608E"/>
	<stop  offset="0.992" style="stop-color:#232F4D"/>
</linearGradient>
<rect class="st0" width="1903" height="1444"/>
<radialGradient id="SVGID_2_" cx="922" cy="939.5" r="159.5" gradientUnits="userSpaceOnUse">
	<stop  offset="0" style="stop-color:#F5F2A1"/>
	<stop  offset="0.4412" style="stop-color:#F6F072"/>
	<stop  offset="0.7567" style="stop-color:#F8EF55"/>
	<stop  offset="0.992" style="stop-color:#F9ED37"/>
</radialGradient>
<circle class="st1" cx="922" cy="939.5" r="159.5"/>
<linearGradient id="SVGID_3_" gradientUnits="userSpaceOnUse" x1="385.953" y1="497.8067" x2="387.5508" y2="254.0553">
	<stop  offset="0" style="stop-color:#D7CAB1"/>
	<stop  offset="0.2433" style="stop-color:#CDC0B3"/>
	<stop  offset="0.4679" style="stop-color:#BDB3B6"/>
	<stop  offset="0.5161" style="stop-color:#B8AEB7"/>
	<stop  offset="0.7139" style="stop-color:#A89EBA"/>
	<stop  offset="0.8448" style="stop-color:#A095B9"/>
	<stop  offset="1" style="stop-color:#9C90B9"/>
</linearGradient>
<path class="st2" d="M120.85,401.85c14.63-23.5,47.33-35.88,73.65-25.85c0,0-8-44,59-25c0,0-15-60,60-75c0,0,23.61-50,71.3,0
	c0,0,86.7,6,79.7,79c0,0,66-27,85,29c0,0,60.99-18,63,35.99c-0.13-3.38,22.59-5.5,24.83-5.32c13.3,1.12,22.36,12.03,22.68,25.12
	c0.31,12.48-8.47,18.21-18.44,23.91c-18.81,10.75-40.5,17.13-61.33,22.72c-42.71,11.47-87.4,11.98-131.33,11.78
	c-66.7-0.3-133.37-2.05-200.05-3.45c-37.74-0.8-86.67-1.06-117.86-25.64c-16.65-13.12-21.45-32.43-16.39-52.66
	C115.92,411.23,118.06,406.34,120.85,401.85z"/>
<linearGradient id="SVGID_4_" gradientUnits="userSpaceOnUse" x1="1211.1647" y1="410.8902" x2="1211.9635" y2="289.028" gradientTransform="matrix(-1 0 0 1 2620.5229 0)">
	<stop  offset="0" style="stop-color:#D7CAB1"/>
	<stop  offset="0.2433" style="stop-color:#CDC0B3"/>
	<stop  offset="0.4679" style="stop-color:#BDB3B6"/>
	<stop  offset="0.5161" style="stop-color:#B8AEB7"/>
	<stop  offset="0.7139" style="stop-color:#A89EBA"/>
	<stop  offset="0.8448" style="stop-color:#A095B9"/>
	<stop  offset="1" style="stop-color:#9C90B9"/>
</linearGradient>
<path class="st3" d="M1542.66,362.18c-7.43-11.55-25.17-17.07-37.74-12.28c0,0,3.99-21.96-29.45-12.48c0,0,7.49-29.95-29.95-37.44
	c0,0-11.78-24.96-35.59,0c0,0-43.27,2.99-39.78,39.43c0,0-32.94-13.48-42.43,14.47c0,0-30.45-8.98-31.45,17.97
	c0.06-1.63-11-2.72-12.08-2.67c-7.89,0.38-15.87,10.3-10.12,17.38c9.2,11.32,24.66,15.19,38.18,18.51
	c21.74,5.34,44.05,6.06,66.33,6.01c22.85-0.06,46.25-0.71,69.3-1.11c23.44-0.41,49.31,2.38,71.51-6.85
	C1534.74,396.74,1554.21,380.13,1542.66,362.18z"/>
<linearGradient id="SVGID_5_" gradientUnits="userSpaceOnUse" x1="1617.6127" y1="337.9233" x2="1618.6096" y2="185.8283">
	<stop  offset="0" style="stop-color:#D7CAB1"/>
	<stop  offset="0.2433" style="stop-color:#CDC0B3"/>
	<stop  offset="0.4679" style="stop-color:#BDB3B6"/>
	<stop  offset="0.5161" style="stop-color:#B8AEB7"/>
	<stop  offset="0.7139" style="stop-color:#A89EBA"/>
	<stop  offset="0.8448" style="stop-color:#A095B9"/>
	<stop  offset="1" style="stop-color:#9C90B9"/>
</linearGradient>
<path class="st4" d="M1451.7,277.4c0.22-0.33,0.45-0.65,0.69-0.97c10.1-13.39,30.14-20.68,45.92-14.67c0,0-4.98-27.4,36.74-15.57
	c0,0-9.34-37.36,37.36-46.7c0,0,14.7-31.14,44.4,0c0,0,53.99,3.74,49.63,49.2c0,0,41.1-16.81,52.93,18.06
	c0,0,37.98-11.21,39.23,22.41c-0.08-2.04,13.74-3.4,15.13-3.33c8.53,0.47,16.42,8.95,14.72,17.7
	c-1.98,10.17-14.24,13.93-22.59,17.15c-12.44,4.8-24.5,9.62-37.63,12.34c-32.7,6.79-66.29,5.33-99.45,4.4
	c-33.44-0.93-66.86-0.7-100.25-3.03c-22.13-1.55-52.45-0.74-70.18-16.29C1447.22,308.37,1443.06,290.01,1451.7,277.4z"/>
<linearGradient id="SVGID_6_" gradientUnits="userSpaceOnUse" x1="233.7346" y1="834.4758" x2="234.4441" y2="726.2444">
	<stop  offset="0.238" style="stop-color:#E2D3B8"/>
	<stop  offset="0.2433" style="stop-color:#E4D5B7"/>
	<stop  offset="0.4786" style="stop-color:#DDC9B9"/>
	<stop  offset="0.5976" style="stop-color:#D1B7BC"/>
	<stop  offset="0.7139" style="stop-color:#C8ABBF"/>
	<stop  offset="0.8448" style="stop-color:#C1A2C1"/>
	<stop  offset="1" style="stop-color:#BE9DC2"/>
</linearGradient>
<path class="st5" d="M115.37,791.47c0,0,14.65-18.2,33.29-11.1c0,0-3.55-19.53,26.19-11.1c0,0-6.66-26.63,26.63-33.29
	c0,0,10.48-22.19,31.65,0c0,0,38.48,2.66,35.37,35.06c0,0,29.29-11.98,37.73,12.87c0,0,27.08-7.99,27.96,15.98
	c0,0,20.42-9.76,21.3,10.21c0.19,4.19-14.84,11.32-17.5,12.61c-27.61,13.37-59.77,12.35-89.67,11.62
	c-33.11-0.8-66.37,0.78-99.24-4.12c-5.94-0.89-14.06-1.47-19.29-4.76c-0.11-0.07-8.79-7.16-5.99-7.36
	C123.8,818.1,105.17,819.43,115.37,791.47z"/>
<linearGradient id="SVGID_7_" gradientUnits="userSpaceOnUse" x1="683.9583" y1="734.5788" x2="684.6672" y2="626.4275">
	<stop  offset="0.238" style="stop-color:#E2D3B8"/>
	<stop  offset="0.2433" style="stop-color:#E4D5B7"/>
	<stop  offset="0.4786" style="stop-color:#DDC9B9"/>
	<stop  offset="0.5976" style="stop-color:#D1B7BC"/>
	<stop  offset="0.7139" style="stop-color:#C8ABBF"/>
	<stop  offset="0.8448" style="stop-color:#C1A2C1"/>
	<stop  offset="1" style="stop-color:#BE9DC2"/>
</linearGradient>
<path class="st6" d="M567.36,691.66c0,0,14.65-18.2,33.29-11.1c0,0-3.55-19.53,26.19-11.1c0,0-6.66-26.63,26.63-33.29
	c0,0,10.48-22.19,31.65,0c0,0,38.48,2.66,35.37,35.06c0,0,29.29-11.98,37.73,12.87c0,0,27.07-7.99,27.96,15.96
	c-0.11-3.42,6.58-1.67,8.27-1.26c3.86,0.93,7.85,2.29,9.05,6.56c4.63,16.58-20.34,21.77-31.5,24.22
	c-21.3,4.67-43.23,5.26-64.95,5.08c-27.61-0.23-55.43,0.19-82.97-1.78c-7.69-0.55-15.37-1.34-23-2.48
	c-5.94-0.89-14.06-1.47-19.29-4.76c-1.91-1.23-3.64-3.13-5.18-4.77c-0.64-0.67-1.09-2.16-1.72-2.59c-4.4-2.97-8.25-1.82-10-7.76
	C563.08,704.46,565.28,697.35,567.36,691.66z"/>
<linearGradient id="SVGID_8_" gradientUnits="userSpaceOnUse" x1="1324.1061" y1="721.5707" x2="1325.1161" y2="567.4912" gradientTransform="matrix(-1 0 0 1 2543.7932 0)">
	<stop  offset="0.238" style="stop-color:#E2D3B8"/>
	<stop  offset="0.2433" style="stop-color:#E4D5B7"/>
	<stop  offset="0.4786" style="stop-color:#DDC9B9"/>
	<stop  offset="0.5976" style="stop-color:#D1B7BC"/>
	<stop  offset="0.7139" style="stop-color:#C8ABBF"/>
	<stop  offset="0.8448" style="stop-color:#C1A2C1"/>
	<stop  offset="1" style="stop-color:#BE9DC2"/>
</linearGradient>
<path class="st7" d="M1388.15,660.34c0,0-20.85-25.91-47.39-15.8c0,0,5.05-27.8-37.28-15.8c0,0,9.48-37.91-37.91-47.39
	c0,0-14.92-31.59-45.06,0c0,0-54.78,3.79-50.36,49.92c0,0-41.7-17.06-53.71,18.32c0,0-38.54-11.37-39.81,22.75
	c0.07-1.94-13.4-3.42-14.73-3.39c-9.56,0.16-18.3,10.54-14.73,19.93c3.45,9.06,13.69,11.99,21.88,15.12
	c11.77,4.51,23.37,9.52,35.72,12.27c24.9,5.55,50.6,5.92,75.99,5.49c6.04-0.1,12.07-0.26,18.11-0.4
	c47.13-1.14,94.48,1.11,141.28-5.87c8.46-1.26,20.01-2.09,27.46-6.77c0.16-0.1,12.51-10.2,8.53-10.48
	C1376.15,698.25,1402.68,700.14,1388.15,660.34z"/>
<linearGradient id="SVGID_9_" gradientUnits="userSpaceOnUse" x1="1530.962" y1="621.672" x2="1531.6715" y2="513.4406">
	<stop  offset="0.238" style="stop-color:#E2D3B8"/>
	<stop  offset="0.2433" style="stop-color:#E4D5B7"/>
	<stop  offset="0.4786" style="stop-color:#DDC9B9"/>
	<stop  offset="0.5976" style="stop-color:#D1B7BC"/>
	<stop  offset="0.7139" style="stop-color:#C8ABBF"/>
	<stop  offset="0.8448" style="stop-color:#C1A2C1"/>
	<stop  offset="1" style="stop-color:#BE9DC2"/>
</linearGradient>
<path class="st8" d="M1412.36,578.66c0,0,14.65-18.2,33.29-11.1c0,0-3.55-19.53,26.19-11.1c0,0-6.66-26.63,26.63-33.29
	c0,0,10.48-22.19,31.65,0c0,0,38.48,2.66,35.37,35.06c0,0,29.29-11.98,37.73,12.87c0,0,27.07-7.99,27.96,15.98
	c-0.06-1.5,9.97-2.43,10.96-2.36c5.51,0.37,13.08,7.66,10.43,13.44c-2.61,5.69-12.31,9.19-17.58,11.74
	c-27.61,13.37-59.77,12.35-89.67,11.62c-27.1-0.66-54.93-0.13-82.19-2.23c-16.54-1.28-38.61-1.91-49.77-16.29
	c-0.96-1.24-1.82-2.57-2.54-3.97C1407.42,592.44,1409.98,585.17,1412.36,578.66z"/>
<linearGradient id="SVGID_10_" gradientUnits="userSpaceOnUse" x1="942.8797" y1="1172.8892" x2="949.4133" y2="642.3736">
	<stop  offset="0" style="stop-color:#006677"/>
	<stop  offset="0.1578" style="stop-color:#007892"/>
	<stop  offset="0.2238" style="stop-color:#007E97"/>
	<stop  offset="0.3877" style="stop-color:#0088A0"/>
	<stop  offset="0.5749" style="stop-color:#0B92AA"/>
	<stop  offset="0.7727" style="stop-color:#0997A7"/>
	<stop  offset="0.992" style="stop-color:#03A2A0"/>
</linearGradient>
<path class="st9" d="M1894.88,880.09c9.07,54.33-54.39,78.47-54.39,78.47c-71.01-38.23-61.95-100.61-61.95-100.61l-54.39,60.36
	c-69.5-154.93-261.39-269.62-261.39-269.62c-37.77,162.98-194.91,247.49-234.2,247.49c-39.28,0-52.88-92.56-52.88-92.56
	c-19.64,62.38-154.12,189.14-154.12,189.14s-86.12,54.33-135.98,26.16c-49.86-28.17-43.82-96.58-43.82-96.58l-19.64,74.45
	L687.64,841.86v80.48L545.61,771.44c0,0,9.07,128.78-48.35,108.65c-57.42-20.12-78.57-173.04-78.57-173.04L198.1,884.11v-92.56
	c0,0-75.55,185.12-132.96,185.12s-49.86-80.48-49.86-80.48l-37.77,59.05v16.74c3.46,31.59,1.63,63.28,0,95V1161l1934-33.59V930.04
	L1894.88,880.09z"/>
<linearGradient id="SVGID_11_" gradientUnits="userSpaceOnUse" x1="545.8577" y1="1062.7162" x2="546.0701" y2="1398.0835">
	<stop  offset="0" style="stop-color:#2F90C0"/>
	<stop  offset="0.4198" style="stop-color:#135980"/>
</linearGradient>
<path class="st10" d="M648.61,1011.03c-104.12-39.59-206.51-88.7-317.28-102.32c-73.48-9.04-148.01-2.03-221.3,8.37
	c-39.31,5.58-78.49,12.15-117.46,19.68c-0.63,0.12-1.27,0.25-1.9,0.39c5.32,39.76,1.69,79.7-0.02,119.63
	c14.87,16.43,36.71,26.19,57.71,34.71c129.03,52.4,262.98,87.81,399.96,113.29l12.68,0.26c159.27,35.15,324.97,10.26,479.07-36.03
	c28.81-8.66,57.38-18.08,85.75-28.02c19.27-6.75,55.36-28.84,75.27-27.6C946.03,1103.78,793.53,1066.13,648.61,1011.03z"/>
<linearGradient id="SVGID_12_" gradientUnits="userSpaceOnUse" x1="951.5469" y1="1155.4806" x2="952.561" y2="1479.8019">
	<stop  offset="0" style="stop-color:#2F90C0"/>
	<stop  offset="0.3503" style="stop-color:#135980"/>
	<stop  offset="0.3602" style="stop-color:#12577D"/>
	<stop  offset="0.4595" style="stop-color:#084467"/>
	<stop  offset="0.5543" style="stop-color:#02385A"/>
	<stop  offset="0.639" style="stop-color:#003455"/>
	<stop  offset="1" style="stop-color:#003455"/>
</linearGradient>
<path class="st11" d="M1281.5,1084c-104.89,7.08-209.49,23.68-310.53,53.04c-94.63,27.5-185.66,68.32-285.48,73.24
	c-78.77,3.88-157.81-7.02-235.1-21.19c-113.47-20.8-224.54-55.16-330.58-100.48c-11.09-4.74-117.56-44.08-127.55-60.48
	c-0.24,4.95-0.5,9.89-0.75,14.84c0,44.83,0,162.07,0,162.07c134.12,32.23,272.14,42.41,409.28,53.02
	c86.24,6.67,172.51,13.02,258.84,18.34c337.76,20.83,680.03,25.28,1014.17-25.85c22.39-3.43,236.83-31.74,237.72-45.51
	c0,0,0-129.13,0-129.13S1592.5,1063,1281.5,1084z"/>
<linearGradient id="SVGID_13_" gradientUnits="userSpaceOnUse" x1="951.3342" y1="1333.6372" x2="943.996" y2="1891.9536">
	<stop  offset="0" style="stop-color:#2F90C0"/>
	<stop  offset="0.0314" style="stop-color:#2780AD"/>
	<stop  offset="0.0958" style="stop-color:#18648C"/>
	<stop  offset="0.131" style="stop-color:#135980"/>
	<stop  offset="0.1362" style="stop-color:#12577D"/>
	<stop  offset="0.1877" style="stop-color:#084467"/>
	<stop  offset="0.2368" style="stop-color:#02385A"/>
	<stop  offset="0.2807" style="stop-color:#003455"/>
	<stop  offset="0.3663" style="stop-color:#003455"/>
	<stop  offset="0.4679" style="stop-color:#003455"/>
	<stop  offset="0.4903" style="stop-color:#003455"/>
	<stop  offset="0.8841" style="stop-color:#003455"/>
</linearGradient>
<path class="st12" d="M-8.5,1444v-245.96c0,0,1162,179.04,1920,0V1444H-8.5z"/>
</svg>
