<?xml version="1.0" encoding="utf-8"?>
<!-- Generator: Adobe Illustrator 25.0.1, SVG Export Plug-In . SVG Version: 6.00 Build 0)  -->
<svg version="1.1" id="Layer_1" xmlns="http://www.w3.org/2000/svg" xmlns:xlink="http://www.w3.org/1999/xlink" x="0px" y="0px"
	 viewBox="0 0 1920 960" style="enable-background:new 0 0 1920 960;" xml:space="preserve">
<style type="text/css">
	.st0{fill:#D30B1A;}
</style>
<g>
	<path class="st0" d="M378.21,413.06c-16.33,0-29.92-3.5-40.77-10.5s-19.08-16.68-24.67-29.05c-5.6-12.36-8.87-26.71-9.8-43.05
		l35-9.45c0.7,10.04,2.27,19.72,4.73,29.05c2.45,9.34,6.48,16.98,12.08,22.93c5.6,5.95,13.41,8.92,23.45,8.92
		c10.27,0,18.02-2.85,23.27-8.58c5.25-5.71,7.88-13.94,7.88-24.67c0-12.83-2.92-23.15-8.75-30.98
		c-5.83-7.81-13.19-15.69-22.05-23.62l-47.6-42c-9.33-8.16-16.22-17.09-20.65-26.77c-4.44-9.68-6.65-21.64-6.65-35.88
		c0-20.76,5.95-36.86,17.85-48.3c11.9-11.43,28.11-17.15,48.65-17.15c11.2,0,21.05,1.46,29.57,4.38
		c8.52,2.92,15.63,7.41,21.35,13.48c5.71,6.07,10.27,13.71,13.65,22.93c3.38,9.22,5.65,20.01,6.83,32.38l-33.6,9.1
		c-0.7-9.33-2.1-17.9-4.2-25.72c-2.1-7.81-5.78-14.12-11.03-18.9c-5.25-4.78-12.77-7.17-22.57-7.17c-9.8,0-17.45,2.62-22.93,7.88
		c-5.48,5.25-8.22,13.01-8.22,23.27c0,8.64,1.45,15.75,4.38,21.35c2.91,5.6,7.64,11.32,14.17,17.15l47.95,42
		c10.73,9.34,20.18,20.48,28.35,33.43c8.17,12.95,12.25,28.29,12.25,46.02c0,14-2.92,26.07-8.75,36.23
		c-5.83,10.15-13.82,17.91-23.97,23.27C403.23,410.37,391.51,413.06,378.21,413.06z"/>
	<path class="st0" d="M476.2,409.91l5.25-283.5h38.85l50.05,229.95l50.4-229.95h38.5l5.25,283.5h-31.85l-3.15-205.8l-47.95,205.8
		h-22.4l-47.6-205.8l-3.15,205.8H476.2z"/>
	<path class="st0" d="M780.35,413.06c-19.14,0-34.42-3.73-45.85-11.2c-11.44-7.46-19.6-18.14-24.5-32.03
		c-4.9-13.88-7.35-30.15-7.35-48.82V213.56c0-18.66,2.5-34.7,7.53-48.12c5.01-13.41,13.18-23.68,24.5-30.8
		c11.31-7.11,26.54-10.68,45.67-10.68c19.13,0,34.3,3.62,45.5,10.85c11.2,7.24,19.3,17.5,24.33,30.8
		c5.01,13.3,7.52,29.29,7.52,47.95v107.8c0,18.44-2.51,34.54-7.52,48.3c-5.02,13.77-13.12,24.45-24.33,32.02
		C814.65,409.27,799.48,413.06,780.35,413.06z M780.35,381.91c10.5,0,18.43-2.15,23.8-6.48c5.37-4.31,8.98-10.38,10.85-18.2
		c1.86-7.81,2.8-16.98,2.8-27.48V205.51c0-10.5-0.94-19.54-2.8-27.12c-1.87-7.58-5.48-13.42-10.85-17.5
		c-5.37-4.08-13.3-6.12-23.8-6.12s-18.5,2.05-23.98,6.12c-5.48,4.08-9.16,9.92-11.02,17.5c-1.87,7.58-2.8,16.62-2.8,27.12v124.25
		c0,10.5,0.93,19.66,2.8,27.48c1.86,7.82,5.54,13.88,11.02,18.2C761.85,379.75,769.85,381.91,780.35,381.91z"/>
	<path class="st0" d="M969,413.06c-19.14,0-34.42-3.73-45.85-11.2c-11.44-7.46-19.6-18.14-24.5-32.03
		c-4.9-13.88-7.35-30.15-7.35-48.82V213.56c0-18.66,2.5-34.7,7.53-48.12c5.01-13.41,13.18-23.68,24.5-30.8
		c11.31-7.11,26.54-10.68,45.68-10.68c19.13,0,34.3,3.62,45.5,10.85c11.2,7.24,19.3,17.5,24.33,30.8
		c5.01,13.3,7.52,29.29,7.52,47.95v107.8c0,18.44-2.51,34.54-7.52,48.3c-5.02,13.77-13.12,24.45-24.33,32.02
		C1003.29,409.27,988.12,413.06,969,413.06z M969,381.91c10.5,0,18.43-2.15,23.8-6.48c5.37-4.31,8.98-10.38,10.85-18.2
		c1.87-7.81,2.8-16.98,2.8-27.48V205.51c0-10.5-0.94-19.54-2.8-27.12c-1.87-7.58-5.48-13.42-10.85-17.5
		c-5.37-4.08-13.3-6.12-23.8-6.12c-10.5,0-18.5,2.05-23.98,6.12c-5.48,4.08-9.16,9.92-11.02,17.5c-1.87,7.58-2.8,16.62-2.8,27.12
		v124.25c0,10.5,0.93,19.66,2.8,27.48c1.86,7.82,5.54,13.88,11.02,18.2C950.5,379.75,958.49,381.91,969,381.91z"/>
	<path class="st0" d="M1116.34,409.91v-254.1h-47.95v-29.4h134.05v29.4h-46.55v254.1H1116.34z"/>
	<path class="st0" d="M1229.74,409.91v-283.5h39.55v122.5h72.8v-122.5h39.55v283.5h-39.55V277.26h-72.8v132.65H1229.74z"/>
	<path class="st0" d="M1428.18,409.91v-283.5h38.85v283.5H1428.18z"/>
	<path class="st0" d="M1512.88,409.91v-283.5h109.9v29.4h-70.35v93.8h57.05v28h-57.05v103.95h71.05v28.35H1512.88z"/>
	<path class="st0" d="M311.36,829.91v-283.5h39.55v133.7l65.1-133.7h36.75l-56,124.95l65.1,158.55h-38.5l-54.25-133l-18.2,32.9
		v100.1H311.36z"/>
	<path class="st0" d="M486.7,829.91v-283.5h38.85v283.5H486.7z"/>
	<path class="st0" d="M571.4,829.91v-283.5h26.95l80.5,188.3v-188.3h32.9v283.5h-25.2L605,636.36v193.55H571.4z"/>
	<path class="st0" d="M823.75,833.41c-17.74,0-31.91-3.79-42.52-11.38c-10.62-7.58-18.32-18.6-23.1-33.08
		c-4.79-14.46-7.18-31.85-7.18-52.15v-94.85c0-20.76,2.15-38.44,6.48-53.02c4.31-14.58,12.02-25.73,23.1-33.43
		c11.08-7.7,26.54-11.55,46.38-11.55c17.73,0,32.02,2.97,42.88,8.92s18.73,15.05,23.62,27.3s7.35,27.71,7.35,46.38v10.5h-37.1v-8.75
		c0-12.37-0.82-22.46-2.45-30.28c-1.63-7.81-4.96-13.65-9.97-17.5c-5.02-3.85-12.9-5.78-23.62-5.78c-11.67,0-20.12,2.69-25.38,8.05
		c-5.25,5.37-8.52,12.66-9.8,21.88c-1.29,9.22-1.92,19.66-1.92,31.32v105c0,13.54,0.99,24.85,2.98,33.95
		c1.98,9.1,5.77,15.87,11.38,20.3c5.6,4.44,13.53,6.65,23.8,6.65c10.26,0,18.2-2.45,23.8-7.35c5.6-4.9,9.45-12.13,11.55-21.7
		c2.1-9.57,3.15-21.46,3.15-35.7v-19.6H831.1v-28h71.75v140.35H878l-3.85-32.55c-3.74,10.5-9.57,19.13-17.5,25.9
		C848.71,830.02,837.75,833.41,823.75,833.41z"/>
</g>
</svg>
